<?xml version="1.0" encoding="utf-8"?>
<!-- Generator: Adobe Illustrator 18.1.0, SVG Export Plug-In . SVG Version: 6.00 Build 0)  -->
<!DOCTYPE svg PUBLIC "-//W3C//DTD SVG 1.1//EN" "http://www.w3.org/Graphics/SVG/1.1/DTD/svg11.dtd">
<svg version="1.1" id="Calque_1" xmlns="http://www.w3.org/2000/svg" xmlns:xlink="http://www.w3.org/1999/xlink" x="0px" y="0px"
	 viewBox="-5 -5 500 320" enable-background="new -5 -5 500 320" xml:space="preserve">
<path fill="#6694DA" d="M475,315H15c-11,0-20-9-20-20V15C-5,4,4-5,15-5h460c11,0,20,9,20,20v280C495,306,486,315,475,315z"/>
<path fill="#4D5901" d="M170.1-5h150v65.4c0.2,10.8,1.4,46.6,39.9,58.6l15.6,5.2l3.2-14c0.4-1.6,2-2.6,3.6-2.3l13.9,4.7
	c1.1,0.2,1.8,1.3,1.5,2.4l-3.5,15.4L405,134l-33,151l-11.9-3.8l-3.1,13.7c-0.4,1.6-2,2.6-3.6,2.3l-12.9-4.2c-1.6-0.4-2.6-2-2.3-3.6
	l3.2-14.1l-10.3-3.3l-27.6-10l-50.7-18c-34-13.3-82-41.7-82-124L170.1-5z"/>
</svg>
