<?xml version="1.0" encoding="UTF-8" standalone="no"?>
<!-- Generator: Adobe Illustrator 18.1.0, SVG Export Plug-In . SVG Version: 6.00 Build 0)  -->

<svg
   xmlns:dc="http://purl.org/dc/elements/1.1/"
   xmlns:cc="http://creativecommons.org/ns#"
   xmlns:rdf="http://www.w3.org/1999/02/22-rdf-syntax-ns#"
   xmlns:svg="http://www.w3.org/2000/svg"
   xmlns="http://www.w3.org/2000/svg"
   xmlns:sodipodi="http://sodipodi.sourceforge.net/DTD/sodipodi-0.dtd"
   xmlns:inkscape="http://www.inkscape.org/namespaces/inkscape"
   version="1.1"
   id="Calque_1"
   x="0px"
   y="0px"
   viewBox="-5 -5.2 500 320"
   enable-background="new -5 -5.2 500 320"
   xml:space="preserve"
   inkscape:version="0.48.4 r9939"
   width="100%"
   height="100%"
   sodipodi:docname="pipe_dest_right.svg"><metadata
   id="metadata13"><rdf:RDF><cc:Work
       rdf:about=""><dc:format>image/svg+xml</dc:format><dc:type
         rdf:resource="http://purl.org/dc/dcmitype/StillImage" /></cc:Work></rdf:RDF></metadata><defs
   id="defs11" /><sodipodi:namedview
   pagecolor="#ffffff"
   bordercolor="#666666"
   borderopacity="1"
   objecttolerance="10"
   gridtolerance="10"
   guidetolerance="10"
   inkscape:pageopacity="0"
   inkscape:pageshadow="2"
   inkscape:window-width="1920"
   inkscape:window-height="1053"
   id="namedview9"
   showgrid="false"
   inkscape:zoom="2.95"
   inkscape:cx="294.74042"
   inkscape:cy="117.52633"
   inkscape:window-x="-9"
   inkscape:window-y="-9"
   inkscape:window-maximized="1"
   inkscape:current-layer="Calque_1" />
<path
   fill="#6694DA"
   d="M475,314.8H15c-11,0-20-9-20-20V14.8c0-11,9-20,20-20h460c11,0,20,9,20,20v279.9  C495,305.7,486,314.8,475,314.8z"
   id="path3" />
<rect
   x="170.3"
   y="-5.1999998"
   width="150"
   height="320"
   id="rect5"
   style="fill:#bea68c" />
<path
   fill="#4D5901"
   d="M170.1-4.7h150v65.3c0.2,10.8,1.4,46.5,39.9,58.5l15.6,5.2l3.2-14c0.4-1.6,2-2.6,3.6-2.3l13.9,4.7  c1.1,0.2,1.8,1.3,1.5,2.4l-3.5,15.4L405,134l-33,150.8l-11.9-3.8l-3.1,13.7c-0.4,1.6-2,2.6-3.6,2.3l-12.9-4.2  c-1.6-0.4-2.6-2-2.3-3.6l3.2-14.1l-10.3-3.3l-27.6-10l-50.7-18c-34-13.3-82-41.6-82-123.8L170.1-4.7z"
   id="path7" />
</svg>