<?xml version="1.0" encoding="utf-8"?>
<!-- Generator: Adobe Illustrator 18.1.0, SVG Export Plug-In . SVG Version: 6.00 Build 0)  -->
<!DOCTYPE svg PUBLIC "-//W3C//DTD SVG 1.1//EN" "http://www.w3.org/Graphics/SVG/1.1/DTD/svg11.dtd">
<svg version="1.1" id="Calque_1" xmlns="http://www.w3.org/2000/svg" xmlns:xlink="http://www.w3.org/1999/xlink" x="0px" y="0px"
	 viewBox="-5 -5 500 320" enable-background="new -5 -5 500 320" xml:space="preserve">
<path fill="#6694DA" d="M475,315H15c-11,0-20-9-20-20V15C-5,4,4-5,15-5h460c11,0,20,9,20,20v280C495,306,486,315,475,315z"/>
<rect x="170.3" y="-4" fill="#BEA68C" width="150.8" height="319"/>
<path fill="#4D5901" d="M320.7-5h-150v65.4c-0.2,10.8-1.4,46.6-39.9,58.6l-15.6,5.2l-3.2-14c-0.4-1.6-2-2.6-3.6-2.3l-13.9,4.7
	c-1.1,0.2-1.8,1.3-1.5,2.4l3.5,15.4L85.8,134l33,151l11.9-3.8l3.1,13.7c0.4,1.6,2,2.6,3.6,2.3l12.9-4.2c1.6-0.4,2.6-2,2.3-3.6
	l-3.2-14.1l10.3-3.3l27.6-10l50.7-18c34-13.3,82-41.7,82-124L320.7-5z"/>
</svg>
