<?xml version="1.0" encoding="utf-8"?>
<!-- Generator: Adobe Illustrator 18.1.0, SVG Export Plug-In . SVG Version: 6.00 Build 0)  -->
<!DOCTYPE svg PUBLIC "-//W3C//DTD SVG 1.1//EN" "http://www.w3.org/Graphics/SVG/1.1/DTD/svg11.dtd">
<svg version="1.1" id="Calque_1" xmlns="http://www.w3.org/2000/svg" xmlns:xlink="http://www.w3.org/1999/xlink" x="0px" y="0px"
	 viewBox="-5 -5 500 320" enable-background="new -5 -5 500 320" xml:space="preserve">
<path fill="#6694DA" d="M475,315H15c-11,0-20-9-20-20V15C-5,4,4-5,15-5h460c11,0,20,9,20,20v280C495,306,486,315,475,315z"/>
<path fill="#B25000" d="M355.7,249H300c-1.7,0-3.2-1.4-3.2-3.2v-9.7c0-1.7,1.4-3.2,3.2-3.2h5.2c1.7,0,3.2-1.4,3.2-3.2V158
	c0-1.7-1.4-3.2-3.2-3.2H275c-1.7,0-3.2-1.4-3.2-3.2V98.9c0-1.7-1.4-3.2-3.2-3.2H222c-1.7,0-3.2,1.4-3.2,3.2v52.7
	c0,1.7-1.4,3.2-3.2,3.2h-30.2c-1.7,0-3.2,1.4-3.2,3.2v71.7c0,1.7,1.4,3.2,3.2,3.2h5.2c1.7,0,3.2,1.4,3.2,3.2v9.7
	c0,1.7-1.4,3.2-3.2,3.2H135c-1.7,0-3.2,1.4-3.2,3.2v42.7c0,1.7,1.4,3.2,3.2,3.2h32.2c1.1,0,2.1,0.6,2.7,1.5V315h3.6h143.7h3.1v-3
	c0-0.1,0-0.1,0-0.2v-10.7c0-1.7,1.4-3.2,3.2-3.2h32.2c1.7,0,3.2-1.4,3.2-3.2V252C358.9,250.4,357.4,249,355.7,249z"/>
<path fill="#025199" d="M379.3,14.6c-14.6,0-26.5,10.3-26.5,23l0,0c0-12.7-11.9-23-26.5-23c-13.7,0-25,9-26.4,20.6
	c-0.2,1.5-1.4,2.6-2.8,2.8l-34,5.1c-1.7,0.3-3.3-0.8-3.7-2.5c-1.5-6-7-11.6-12.9-11.6c-6,0-11.5,5.6-13,11.6c-0.4,1.7-2,2.8-3.7,2.5
	l-34-5.1c-1.5-0.2-2.6-1.4-2.8-2.8c-1.4-11.6-12.7-20.6-26.4-20.6c-14.6,0-26.5,10.3-26.5,23l0,0c0-12.7-11.9-23-26.5-23
	s-26.5,10.3-26.5,23v31.7c0,1.7,1.3,3.1,3,3.3l112.1,13.2c1.7,0.2,3,1.6,3,3.3v22c0,1.9,1.5,3.3,3.3,3.3h72.3c1.9,0,3.3-1.5,3.3-3.3
	v-22c0-1.7,1.3-3.1,3-3.3l116.1-13.2c1.7-0.2,3-1.6,3-3.3V37.7C405.9,24.9,394,14.6,379.3,14.6z"/>
</svg>
